
<svg version="1.1" xmlns="http://www.w3.org/2000/svg" width="32" height="32" viewBox="0 0 32 32">
<title>icon-avatar</title>
<path fill="#1b9eff" opacity="0.978" d="M14.156-0.031h2.063v0.938c-0.741 0.011-1.457 0.056-2.163 0.134l0.1-0.009v-1.063z"></path>
<path fill="#1af" opacity="0.953" d="M16.219-0.031h1.125c1.123 0.14 2.227 0.39 3.313 0.75v1c-1.433-0.506-2.913-0.777-4.438-0.813v-0.938z"></path>
<path fill="#2395ff" opacity="0.971" d="M14.031-0.031h0.125v1.063c-0.16 0.042-0.648 0.129-1.138 0.209l-0.3 0.041h-0.188c0.020-0.345-0.001-0.679-0.063-1 0.379-0.099 0.907-0.208 1.443-0.296l0.12-0.016z"></path>
<path fill="#298eff" opacity="0.961" d="M12.469 0.281c0.062 0.321 0.083 0.655 0.063 1h0.188c-0.205 0.087-0.809 0.279-1.417 0.461l-0.396 0.102v-1.125c0.496-0.213 1.016-0.358 1.563-0.438z"></path>
<path fill="#2f87ff" opacity="0.959" d="M10.906 0.719v1.125c-0.69 0.302-1.204 0.553-1.707 0.82l0.145-0.070v-1.25c0.443-0.236 0.962-0.449 1.502-0.61l0.060-0.015z"></path>
<path fill="#0bb2ff" opacity="0.953" d="M20.656 0.719c1.875 0.604 3.583 1.5 5.125 2.688 0 0.011 0 0.025 0 0.038 0 0.273-0.023 0.542-0.067 0.802l0.004-0.028c-0.005 0.115-0.047 0.198-0.125 0.25-1.464-1.222-3.11-2.139-4.938-2.75v-1z"></path>
<path fill="#347fff" opacity="0.955" d="M9.344 1.344v1.25c-0.675 0.349-1.186 0.64-1.687 0.945l0.124-0.070v-1.25c0.47-0.371 0.991-0.662 1.563-0.875z"></path>
<path fill="#3978ff" opacity="0.959" d="M7.781 2.219v1.25c-2.126 1.577-2.553 1.905-2.98 2.233l1.668-1.233v-1.375c0.383-0.325 0.813-0.616 1.274-0.857l0.039-0.018z"></path>
<path fill="#3e73ff" opacity="0.974" d="M6.469 3.094v1.375c-0.415 0.394-0.832 0.79-1.25 1.188l-0.125-1.438c0.404-0.446 0.862-0.821 1.375-1.125z"></path>
<path fill="#436dff" opacity="0.966" d="M5.094 4.219l0.125 1.438c-0.456 0.493-0.906 1.022-1.333 1.57l-0.042 0.055v-1.813c0.4-0.442 0.808-0.849 1.235-1.237l0.015-0.013z"></path>
<path fill="#17a3ff" opacity="0.954" d="M17.719 4.844c-0.044 0.245-0.069 0.527-0.069 0.815 0 0.087 0.002 0.174 0.007 0.26l-0-0.012c-0.902-0.234-1.819-0.297-2.75-0.188v-1c0.947-0.109 1.885-0.068 2.813 0.125z"></path>
<path fill="#05b9ff" opacity="0.957" d="M25.781 3.406c1.866 1.407 3.345 3.136 4.438 5.188l-0.125 2.375c-0.915-2.582-2.415-4.748-4.5-6.5 0.078-0.052 0.12-0.135 0.125-0.25 0.040-0.233 0.063-0.501 0.063-0.774 0-0.013-0-0.027-0-0.040v0.002z"></path>
<path fill="#10acff" opacity="0.957" d="M17.719 4.844c1.1 0.186 2.079 0.623 2.938 1.313-0.004 0.439-0.004 0.897 0 1.375-0.835-0.834-1.835-1.376-3-1.625-0.004-0.074-0.006-0.16-0.006-0.248 0-0.288 0.025-0.57 0.073-0.844l-0.004 0.029z"></path>
<path fill="#2394ff" opacity="0.956" d="M14.906 4.719v1c-1.044 0.168-2.002 0.543-2.875 1.125 0.020-0.387-0.001-0.762-0.063-1.125 0.896-0.556 1.875-0.889 2.938-1z"></path>
<path fill="#4867ff" opacity="0.961" d="M3.844 5.469v1.813c-0.533 0.751-1.052 1.61-1.508 2.507l-0.055 0.118c0.021-0.74-0-1.47-0.063-2.188 0.502-0.85 1.039-1.586 1.639-2.266l-0.014 0.016z"></path>
<path fill="#2a8cff" opacity="0.955" d="M11.969 5.719c0.062 0.363 0.083 0.738 0.063 1.125-0.527 0.423-0.965 0.923-1.313 1.5l-0.125-1.563c0.387-0.449 0.845-0.804 1.375-1.063z"></path>
<path fill="#2f85ff" opacity="0.961" d="M10.594 6.781l0.125 1.563c-0.558 1.099-0.767 2.266-0.625 3.5 0.303-0.017 0.594 0.024 0.875 0.125 0.027-0.004 0.048 0.006 0.063 0.031-0.105 0.33-0.168 0.674-0.188 1.031-0.217-0.11-0.446-0.141-0.688-0.094-0.241 0.274-0.366 0.597-0.375 0.969 0.017 0.438 0.153 0.834 0.406 1.188 0.149 0.058 0.305 0.079 0.469 0.063v2.25c-0.205-0.348-0.361-0.723-0.469-1.125-0.782-0.325-1.241-0.908-1.375-1.75-0.121-0.749-0.007-1.457 0.344-2.125-0.313-1.57-0.115-3.070 0.594-4.5 0.262-0.424 0.541-0.792 0.849-1.131l-0.006 0.006z"></path>
<path fill="#0dafff" opacity="0.968" d="M20.656 6.156c1.006 0.747 1.683 1.726 2.031 2.938 0.326 1.131 0.358 2.266 0.094 3.406 0.354 0.632 0.468 1.309 0.344 2.031-0.138 0.845-0.597 1.429-1.375 1.75-0.23 0.771-0.573 1.48-1.031 2.125l-0.125-1.938 0.344-1.125 0.156-0.156 0.625-0.063c0.409-0.589 0.503-1.225 0.281-1.906-0.050-0.113-0.125-0.208-0.217-0.28l-0.002-0.001c-0.263 0.043-0.566 0.068-0.875 0.068-0.088 0-0.175-0.002-0.262-0.006l0.012 0c-0.584-0.334-0.99-0.824-1.219-1.469-0.13-0.321-0.239-0.699-0.307-1.090l-0.005-0.035c-0.405-0.239-0.874-0.432-1.37-0.555l-0.036-0.008c-0.004-0.074-0.006-0.16-0.006-0.248 0-0.288 0.025-0.57 0.073-0.844l-0.004 0.029c0.834 0.172 1.594 0.506 2.281 1 0.092 0.829 0.404 1.558 0.938 2.188 0.27-0.103 0.551-0.145 0.844-0.125 0.275-1.63-0.121-3.067-1.188-4.313-0.004-0.478-0.004-0.936 0-1.375z"></path>
<path fill="#17a3ff" opacity="0.961" d="M17.781 8.781c-0.044 0.245-0.069 0.527-0.069 0.815 0 0.087 0.002 0.174 0.007 0.26l-0-0.012c-0.922-0.245-1.86-0.307-2.813-0.188v-1c0.955-0.143 1.914-0.102 2.875 0.125z"></path>
<path fill="#02bcff" opacity="0.954" d="M30.219 8.594c0.951 1.761 1.534 3.636 1.75 5.625v3.125c-0.233 2.398-0.952 4.648-2.156 6.75-0.096 0.179-0.21 0.334-0.344 0.469l0-0c-0.6 0.192-0.86-0.027-0.781-0.656 2.455-4.096 2.924-8.408 1.406-12.938l0.125-2.375z"></path>
<path fill="#2395ff" opacity="0.954" d="M14.906 8.656v1c-0.717 0.132-1.405 0.371-2.063 0.719-0.083 0.346-0.169 0.628-0.269 0.903l0.019-0.059c-0.082-0.619-0.082-1.244 0-1.875 0.724-0.366 1.495-0.595 2.313-0.688z"></path>
<path fill="#288eff" opacity="0.956" d="M12.594 9.344c-0.082 0.631-0.082 1.256 0 1.875-0.167 0.527-0.412 0.984-0.726 1.384l0.007-0.009c-0.275 0.309-0.619 0.455-1.031 0.438 0.020-0.357 0.082-0.701 0.188-1.031-0.014-0.025-0.035-0.035-0.063-0.031 0.506-0.638 0.808-1.367 0.906-2.188 0.205-0.178 0.443-0.325 0.702-0.431l0.017-0.006z"></path>
<path fill="#505dff" opacity="0.971" d="M2.219 7.719c0.062 0.718 0.083 1.447 0.063 2.188-1.147 2.508-1.564 5.133-1.25 7.875l-0.125 3.688c-0.472-1.303-0.784-2.636-0.938-4v-2.938c0.249-2.434 0.999-4.705 2.25-6.813z"></path>
<path fill="#2a8cff" opacity="0.959" d="M10.656 15.156c0.136 0.021 0.251 0.084 0.344 0.188 0.226 0.888 0.569 1.721 1.031 2.5v1.563c-0.582-0.579-1.040-1.246-1.375-2v-2.25z"></path>
<path fill="#0fadff" opacity="0.962" d="M20.594 16.469l0.125 1.938c-0.133 0.262-0.289 0.488-0.471 0.69l0.002-0.003c-0.331 0.321-0.647 0.647-0.953 0.983l-0.016 0.017c0.152 0.557 0.423 1.047 0.813 1.469 0.847 0.209 1.474 0.391 2.092 0.592l-0.217-0.061v1.063c-0.503-0.179-1.094-0.321-1.705-0.401l-0.045-0.005c-0.504 1.139-1.337 1.92-2.5 2.344-0.062-0.342-0.083-0.696-0.063-1.063 0.733-0.4 1.274-0.983 1.625-1.75-0.408-0.483-0.721-1.025-0.938-1.625-0.196 0.099-0.425 0.185-0.664 0.245l-0.024 0.005v-1.125c1.399-0.732 2.378-1.836 2.938-3.313z"></path>
<path fill="#4d61ff" opacity="0.95" d="M1.031 17.781c0.292 2.157 1.011 4.157 2.156 6 0.223 0.586 0.025 0.867-0.594 0.844-0.113-0.050-0.208-0.125-0.28-0.217l-0.001-0.002c-0.524-0.84-0.998-1.809-1.371-2.827l-0.035-0.11 0.125-3.688z"></path>
<path fill="#2591ff" opacity="0.963" d="M12.031 17.844c0.435 0.52 0.863 0.989 1.312 1.437l0 0v1.875c-0.175 0.433-0.407 0.805-0.691 1.129l0.004-0.004c0.183 0.388 0.412 0.742 0.688 1.063 0.020 0.428-0.001 0.845-0.063 1.25-0.72-0.457-1.251-1.082-1.594-1.875-0.265 0.073-0.593 0.138-0.928 0.183l-0.041 0.004c-0.062-0.321-0.083-0.655-0.063-1 0.235-0.066 0.573-0.142 0.914-0.206l0.086-0.013c0.506-0.427 0.839-0.969 1-1.625-0.217-0.207-0.422-0.421-0.615-0.645l-0.010-0.012v-1.563z"></path>
<path fill="#2098ff" opacity="0.958" d="M13.344 19.281c0.521 0.353 1.122 0.65 1.761 0.86l0.051 0.015h-0.25v0.938c-0.481-0.084-0.911-0.236-1.304-0.449l0.022 0.011c-0.070 0.112-0.163 0.275-0.252 0.441l-0.029 0.059v-1.875z"></path>
<path fill="#18a1ff" opacity="0.96" d="M17.656 19.781v1.125c-0.309 0.151-0.643 0.244-1 0.281-0.206 0.020-0.445 0.031-0.688 0.031s-0.481-0.011-0.718-0.034l0.030 0.002c-0.138-0.012-0.263-0.043-0.375-0.094v-0.938h0.25c0.872 0.125 1.706 0 2.5-0.375z"></path>
<path fill="#0bb3ff" opacity="0.958" d="M21.969 22.094c1.29 0.323 2.414 0.74 3.476 1.264l-0.101-0.045c0.14 0.080 0.265 0.174 0.375 0.281v1.188c-1.167-0.723-2.417-1.264-3.75-1.625v-1.063z"></path>
<path fill="#3282ff" opacity="0.957" d="M10.656 21.906c-0.020 0.345 0.001 0.679 0.063 1-1.419 0.435-2.394 0.775-3.358 1.139l0.421-0.139v-1.125c0.799-0.329 1.76-0.63 2.751-0.852l0.124-0.023z"></path>
<path fill="#2098ff" opacity="0.952" d="M13.344 23.344c0.455 0.425 0.975 0.738 1.563 0.938v1.063c-0.598-0.143-1.139-0.393-1.625-0.75 0.062-0.405 0.083-0.822 0.063-1.25z"></path>
<path fill="#3c75ff" opacity="0.959" d="M7.781 22.781v1.125c-0.752 0.313-1.419 0.751-2 1.313v-1.375c0.609-0.451 1.276-0.805 2-1.063z"></path>
<path fill="#07b6ff" opacity="0.97" d="M25.719 23.594c1.153 0.57 1.861 1.486 2.125 2.75-0.008 0.143-0.060 0.268-0.156 0.375-0.568 0.703-1.203 1.328-1.906 1.875l-0.125-1.125c0.379-0.38 0.745-0.747 1.113-1.113l0.012-0.012c-0.217-0.623-0.571-1.143-1.063-1.563v-1.188z"></path>
<path fill="#19a1ff" opacity="0.96" d="M17.656 24.031c-0.020 0.366 0.001 0.72 0.063 1.063-0.31 0.151-0.643 0.244-1 0.281-0.606 0.043-1.21 0.033-1.813-0.031v-1.063c0.946 0.223 1.863 0.14 2.75-0.25z"></path>
<path fill="#416fff" opacity="0.963" d="M5.781 23.844v1.375c-0.291 0.353-0.499 0.749-0.625 1.188v1.375c-0.512-0.325-0.887-0.762-1.125-1.313 0.241-1.108 0.824-1.983 1.75-2.625z"></path>
<path fill="#3c75ff" opacity="0.958" d="M5.156 26.406c0.789 0.751 1.646 1.449 2.554 2.079l0.071 0.046c0.020 0.408-0.001 0.803-0.063 1.188-0.978-0.551-1.82-1.194-2.562-1.937l-0-0v-1.375z"></path>
<path fill="#0ab3ff" opacity="0.957" d="M25.656 27.469l0.125 1.125c-1.105 0.977-2.355 1.727-3.75 2.25l-0.125-1.063c0.784-0.368 1.419-0.712 2.034-1.085l-0.096 0.054c0.608-0.428 1.212-0.855 1.813-1.281z"></path>
<path fill="#347fff" opacity="0.955" d="M7.781 28.531c0.423 0.29 0.914 0.581 1.424 0.84l0.076 0.035c0.039 0.381-0.003 0.735-0.125 1.063-0.509-0.202-0.988-0.452-1.438-0.75 0.062-0.384 0.083-0.78 0.063-1.188z"></path>
<path fill="#2c8aff" opacity="0.958" d="M9.281 29.406c0.764 0.38 1.676 0.741 2.619 1.028l0.131 0.034v1c-1.003-0.223-1.961-0.556-2.875-1 0.122-0.327 0.164-0.681 0.125-1.063z"></path>
<path fill="#0fadff" opacity="0.958" d="M21.906 29.781l0.125 1.063c-1.394 0.588-2.852 0.942-4.375 1.063v-1.063c1.467-0.158 2.883-0.512 4.25-1.063z"></path>
<path fill="#2592ff" opacity="0.951" d="M12.031 30.469c0.245 0.061 0.69 0.148 1.137 0.225l0.175 0.025c-0.004 0.074-0.006 0.16-0.006 0.248 0 0.288 0.025 0.57 0.073 0.844l-0.004-0.029c-0.532-0.083-0.996-0.192-1.446-0.331l0.071 0.019v-1z"></path>
<path fill="#15a5ff" opacity="0.96" d="M17.656 30.844v1.063c-0.062-0.011-0.104 0.010-0.125 0.063h-1.313v-1c0.485-0.004 0.965-0.046 1.438-0.125z"></path>
<path fill="#1c9dff" opacity="0.969" d="M13.344 30.719c0.815 0.16 1.751 0.251 2.71 0.251 0.058 0 0.116-0 0.174-0.001l-0.009 0v1h-1.5c-0.161-0.034-0.609-0.1-1.058-0.16l-0.254-0.028c-0.044-0.245-0.069-0.527-0.069-0.815 0-0.087 0.002-0.174 0.007-0.26l-0.001 0.012z"></path>
</svg>
