<!-- Generated by IcoMoon.io -->
<svg version="1.1" xmlns="http://www.w3.org/2000/svg" width="25" height="25" viewBox="0 0 25 25">
<title>linkedin-with-circle</title>
<path d="M12.5 0.5c-6.627 0-12 5.373-12 12s5.373 12 12 12 12-5.373 12-12-5.373-12-12-12zM9.563 17.474h-2.43v-7.82h2.43v7.82zM8.332 8.694c-0.768 0-1.264-0.544-1.264-1.216 0-0.686 0.511-1.214 1.295-1.214s1.264 0.527 1.279 1.214c0 0.673-0.495 1.216-1.31 1.216zM18.438 17.474h-2.43v-4.334c0-1.009-0.352-1.694-1.231-1.694-0.671 0-1.070 0.464-1.246 0.91-0.065 0.159-0.081 0.384-0.081 0.607v4.509h-2.431v-5.325c0-0.976-0.031-1.793-0.064-2.495h2.111l0.111 1.086h0.049c0.32-0.51 1.104-1.262 2.415-1.262 1.599 0 2.798 1.071 2.798 3.374v4.624z"></path>
</svg>
