<svg xmlns="http://www.w3.org/2000/svg" width="138" height="71" viewBox="0 0 138 71" version="1.1">
<path d="M 92 9.500 C 89.844 10.330, 84.057 10.877, 76.932 10.924 C 65.634 10.998, 56.321 12.716, 53.146 15.311 C 50.926 17.125, 49.967 20.784, 51 23.500 C 52.271 26.843, 53.738 26.685, 53.313 23.250 C 52.550 17.093, 58.924 13.732, 72.125 13.328 C 77.419 13.166, 82.481 12.752, 83.375 12.410 C 85.645 11.539, 85.499 11.974, 81.096 19.222 C 75.002 29.253, 65.194 49.343, 63.919 54.407 C 62.940 58.297, 63.013 59.372, 64.405 61.496 C 65.378 62.981, 66.993 64, 68.373 64 C 71.416 64, 77.744 59.360, 81.432 54.424 C 83.965 51.033, 83.534 51.281, 78.256 56.250 C 64.440 69.258, 64.851 58.892, 79.198 32.500 C 88.025 16.263, 91.686 11.075, 95.500 9.398 C 99.425 7.672, 96.528 7.756, 92 9.500 M 114 12.695 C 108.978 15.285, 104.951 21.972, 98.429 38.551 C 95.279 46.558, 91.817 54.234, 90.737 55.608 C 89.656 56.981, 88.999 58.333, 89.277 58.610 C 90.155 59.488, 93.579 53.910, 103.497 35.445 C 108.798 25.575, 114.491 16.237, 116.148 14.693 C 122.199 9.052, 129.745 13.556, 127.075 21.214 C 125.472 25.813, 126.265 25.507, 129.020 20.464 L 131.453 16.009 129.310 13.866 C 126.325 10.881, 118.654 10.294, 114 12.695 M 76.507 14.989 C 76.157 15.555, 76.558 15.723, 77.448 15.382 C 79.180 14.717, 79.497 14, 78.059 14 C 77.541 14, 76.843 14.445, 76.507 14.989 M 63.101 26.390 L 52.500 36.780 44 37.211 C 38.484 37.490, 34.447 38.244, 32.500 39.357 C 30.162 40.694, 30.014 40.934, 31.832 40.443 C 33.114 40.097, 37.382 40.137, 41.317 40.532 L 48.471 41.250 43.513 45.739 C 37.554 51.134, 28.173 57.612, 23.479 59.573 C 19.011 61.440, 12.584 61.409, 11.011 59.513 C 10.315 58.674, 10.025 56.822, 10.347 55.263 L 10.918 52.500 9.504 55.500 C 7.590 59.561, 7.663 60.663, 10 63 C 15.214 68.214, 28.323 62.598, 44.721 48.125 L 52.793 41 59.174 41 C 63.331 41, 66.330 40.457, 67.777 39.443 C 71.132 37.094, 70.495 36.466, 65.136 36.837 C 54.472 37.577, 54.475 37.497, 65.437 26.221 C 70.903 20.600, 74.998 16, 74.538 16 C 74.078 16, 68.931 20.675, 63.101 26.390 M 23.785 43.750 C 22.238 45.526, 22.411 48, 24.083 48 C 24.587 48, 25 47.190, 25 46.200 C 25 45.210, 25.540 43.860, 26.200 43.200 C 26.936 42.464, 26.996 42, 26.355 42 C 25.780 42, 24.624 42.788, 23.785 43.750 M 123.774 53.050 C 125.443 55.226, 124.336 57.922, 121.299 59.077 C 119.963 59.584, 111.587 60.007, 102.685 60.015 C 93.783 60.024, 85.825 60.467, 85 61 C 83.812 61.768, 84.020 61.970, 86 61.975 C 87.375 61.977, 96.150 62.481, 105.500 63.093 C 124.657 64.348, 128 63.820, 128 59.541 C 128 58.154, 126.770 55.769, 125.250 54.210 C 123.737 52.659, 123.073 52.136, 123.774 53.050 M 80 62.969 C 80 63.501, 80.675 63.678, 81.500 63.362 C 82.325 63.045, 83 62.609, 83 62.393 C 83 62.177, 82.325 62, 81.500 62 C 80.675 62, 80 62.436, 80 62.969" stroke="none" fill="#191919" fill-rule="evenodd"/>
<path d="M 0 35.507 L 0 71.014 69.250 70.757 L 138.500 70.500 138.763 35.250 L 139.026 0 69.513 0 L 0 0 0 35.507 M 0.451 36 C 0.451 55.525, 0.585 63.513, 0.748 53.750 C 0.912 43.988, 0.912 28.013, 0.748 18.250 C 0.585 8.488, 0.451 16.475, 0.451 36 M 92 9.500 C 89.844 10.330, 84.057 10.877, 76.932 10.924 C 65.634 10.998, 56.321 12.716, 53.146 15.311 C 50.926 17.125, 49.967 20.784, 51 23.500 C 52.271 26.843, 53.738 26.685, 53.313 23.250 C 52.550 17.093, 58.924 13.732, 72.125 13.328 C 77.419 13.166, 82.481 12.752, 83.375 12.410 C 85.645 11.539, 85.499 11.974, 81.096 19.222 C 75.002 29.253, 65.194 49.343, 63.919 54.407 C 62.940 58.297, 63.013 59.372, 64.405 61.496 C 65.378 62.981, 66.993 64, 68.373 64 C 71.416 64, 77.744 59.360, 81.432 54.424 C 83.965 51.033, 83.534 51.281, 78.256 56.250 C 64.440 69.258, 64.851 58.892, 79.198 32.500 C 88.025 16.263, 91.686 11.075, 95.500 9.398 C 99.425 7.672, 96.528 7.756, 92 9.500 M 114 12.695 C 108.978 15.285, 104.951 21.972, 98.429 38.551 C 95.279 46.558, 91.817 54.234, 90.737 55.608 C 89.656 56.981, 88.999 58.333, 89.277 58.610 C 90.155 59.488, 93.579 53.910, 103.497 35.445 C 108.798 25.575, 114.491 16.237, 116.148 14.693 C 122.199 9.052, 129.745 13.556, 127.075 21.214 C 125.472 25.813, 126.265 25.507, 129.020 20.464 L 131.453 16.009 129.310 13.866 C 126.325 10.881, 118.654 10.294, 114 12.695 M 76.507 14.989 C 76.157 15.555, 76.558 15.723, 77.448 15.382 C 79.180 14.717, 79.497 14, 78.059 14 C 77.541 14, 76.843 14.445, 76.507 14.989 M 63.101 26.390 L 52.500 36.780 44 37.211 C 38.484 37.490, 34.447 38.244, 32.500 39.357 C 30.162 40.694, 30.014 40.934, 31.832 40.443 C 33.114 40.097, 37.382 40.137, 41.317 40.532 L 48.471 41.250 43.513 45.739 C 37.554 51.134, 28.173 57.612, 23.479 59.573 C 19.011 61.440, 12.584 61.409, 11.011 59.513 C 10.315 58.674, 10.025 56.822, 10.347 55.263 L 10.918 52.500 9.504 55.500 C 7.590 59.561, 7.663 60.663, 10 63 C 15.214 68.214, 28.323 62.598, 44.721 48.125 L 52.793 41 59.174 41 C 63.331 41, 66.330 40.457, 67.777 39.443 C 71.132 37.094, 70.495 36.466, 65.136 36.837 C 54.472 37.577, 54.475 37.497, 65.437 26.221 C 70.903 20.600, 74.998 16, 74.538 16 C 74.078 16, 68.931 20.675, 63.101 26.390 M 23.785 43.750 C 22.238 45.526, 22.411 48, 24.083 48 C 24.587 48, 25 47.190, 25 46.200 C 25 45.210, 25.540 43.860, 26.200 43.200 C 26.936 42.464, 26.996 42, 26.355 42 C 25.780 42, 24.624 42.788, 23.785 43.750 M 123.774 53.050 C 125.443 55.226, 124.336 57.922, 121.299 59.077 C 119.963 59.584, 111.587 60.007, 102.685 60.015 C 93.783 60.024, 85.825 60.467, 85 61 C 83.812 61.768, 84.020 61.970, 86 61.975 C 87.375 61.977, 96.150 62.481, 105.500 63.093 C 124.657 64.348, 128 63.820, 128 59.541 C 128 58.154, 126.770 55.769, 125.250 54.210 C 123.737 52.659, 123.073 52.136, 123.774 53.050 M 80 62.969 C 80 63.501, 80.675 63.678, 81.500 63.362 C 82.325 63.045, 83 62.609, 83 62.393 C 83 62.177, 82.325 62, 81.500 62 C 80.675 62, 80 62.436, 80 62.969" stroke="none" fill="none" fill-rule="evenodd"/>
</svg>